/* XPM */
static char * frameABR_xpm[] = {
"31 31 22 1",
" 	c None",
".	c #EFEFEF",
"+	c #8C8982",
"@	c #FFFFFF",
"#	c #DCDAD5",
"$	c #9E9A91",
"%	c #000000",
"&	c #8C86AA",
"*	c #221E22",
"=	c #574C8F",
"-	c #DBD9D4",
";	c #9F9F9D",
">	c #757575",
",	c #9A9A99",
"'	c #F1F0EE",
")	c #D8D6D1",
"!	c #939393",
"~	c #FAFAFA",
"{	c #F5F5F3",
"]	c #D4D3CF",
"^	c #F4F4F4",
"/	c #DFDDD8",
"......+@#############$%  &*****",
"......+@#############$%  &&&&&*",
"......+@#############$%  &===**",
"......+@#############$%  &===**",
"......+@#############$%  &===**",
"......+@$$$$$$$$$$$$$$%  &===**",
"......+%%%%%%%%%%%%%%%%  &===**",
"......+@@@@@@@@@@@@@@@%  &===**",
"......+@#############$%  &===**",
"......+@#############$%  &===**",
"......+@#############$%  &===**",
"......+@#############$%  &===**",
"......+@########--###$%  &===**",
"......+@##;>>>>>>;###$%  &===**",
"......+@##-,,>>>;@''#$%  &===**",
"......+@##-))!>!~{###$%  &===**",
"......+@#####],^^/###$%  &===**",
"......+@######/{/####$%  &===**",
"......+@#############$%  &===**",
"......+@#############$%  &===**",
"......+@#############$%  &===**",
"......+@$$$$$$$$$$$$$$%  &===**",
"......+%%%%%%%%%%%%%%%%  &===**",
"                         &===**",
"                         &===**",
"&&&&&&&&&&&&&&&&&&&&&&&&&&===**",
"*&===========================**",
"*&===========================**",
"*&===========================**",
"*&*****************************",
"*******************************"};
