/* XPM */
static char *frameAR[] = {
/* columns rows colors chars-per-pixel */
"6 1 3 1 ",
"  c #221E22",
". c #574C8F",
"X c #8C86AA",
/* pixels */
"X...  "
};
