/* XPM */
static char *frameATR[] = {
/* columns rows colors chars-per-pixel */
"31 32 4 1 ",
"  c #221E22",
". c #221E22",
"X c #8C86AA",
"o c None",
/* pixels */
" XXXXXXXXXXXXXXXXXXXXXXXXXXXXX ",
" XXXXXXXXXXXXXXXXXXXXXXXXXXXX  ",
" X...........................  ",
" X...........................  ",
" X...........................  ",
" X                        ...  ",
"oooooooooooooooooooooooooX...  ",
"oooooooooooooooooooooooooX...  ",
"oooooooooooooooooooooooooX...  ",
"oooooooooooooooooooooooooX...  ",
"oooooooooooooooooooooooooX...  ",
"oooooooooooooooooooooooooX...  ",
"oooooooooooooooooooooooooX...  ",
"oooooooooooooooooooooooooX...  ",
"oooooooooooooooooooooooooX...  ",
"oooooooooooooooooooooooooX...  ",
"oooooooooooooooooooooooooX...  ",
"oooooooooooooooooooooooooX...  ",
"oooooooooooooooooooooooooX...  ",
"oooooooooooooooooooooooooX...  ",
"oooooooooooooooooooooooooX...  ",
"oooooooooooooooooooooooooX...  ",
"oooooooooooooooooooooooooX...  ",
"oooooooooooooooooooooooooX...  ",
"oooooooooooooooooooooooooX...  ",
"oooooooooooooooooooooooooX...  ",
"oooooooooooooooooooooooooX...  ",
"oooooooooooooooooooooooooX...  ",
"oooooooooooooooooooooooooX...  ",
"oooooooooooooooooooooooooX...  ",
"oooooooooooooooooooooooooX     ",
"oooooooooooooooooooooooooXXXXX "
};
