/* XPM */
static char *menuButtonA[] = {
/* columns rows colors chars-per-pixel */
"24 48 3 1 ",
"  c #81559B",
". c #8C86AA",
"X c #F3F7F0",
/* pixels */
"XXXXXXXXXXXXXXXXXXXXXXX ",
"X...................... ",
"X...................... ",
"X...................... ",
"X...................... ",
"X...................... ",
"X...................... ",
"X...................... ",
"X...................... ",
"X....XXXXXXXXXXXXX .... ",
"X....X............ .... ",
"X....X............ .... ",
"X....X............ .... ",
"X....X............ .... ",
"X....X             .... ",
"X...................... ",
"X...................... ",
"X...................... ",
"X...................... ",
"X...................... ",
"X...................... ",
"X...................... ",
"X...................... ",
"X                       ",
"                       X",
" ......................X",
" ......................X",
" ......................X",
" ......................X",
" ......................X",
" ......................X",
" ......................X",
" ......................X",
" ....XXXXXXXXXXXXX ....X",
" ....X............ ....X",
" ....X............ ....X",
" ....X............ ....X",
" ....X............ ....X",
" ....X             ....X",
" ......................X",
" ......................X",
" ......................X",
" ......................X",
" ......................X",
" ......................X",
" ......................X",
" ......................X",
" XXXXXXXXXXXXXXXXXXXXXXX"
};
