/* XPM */
static char *rollupA[] = {
/* columns rows colors chars-per-pixel */
"24 48 3 1 ",
"  c #221E22",
". c #574C8F",
"X c #8C86AA",
/* pixels */
"XXXXXXXXXXXXXXXXXXXXXXX ",
"X...................... ",
"X...................... ",
"X...................... ",
"X...................... ",
"X...................... ",
"X...........X.......... ",
"X..........X. ......... ",
"X..........X. ......... ",
"X..........X. ......... ",
"X.........X...  ....... ",
"X.........X...  ....... ",
"X.......XX...... ...... ",
"X.......XX...... ...... ",
"X......X......... ..... ",
"X......X......... ..... ",
"X......X......... ..... ",
"X.....X........... .... ",
"X.....X            .... ",
"X...................... ",
"X...................... ",
"X...................... ",
"X...................... ",
"X                       ",
"                       X",
" ......................X",
" ......................X",
" ......................X",
" ......................X",
" ......................X",
" ...........X..........X",
" ..........X. .........X",
" ..........X. .........X",
" ..........X. .........X",
" .........X...  .......X",
" .........X...  .......X",
" .......XX...... ......X",
" .......XX...... ......X",
" ......X......... .....X",
" ......X......... .....X",
" ......X......... .....X",
" .....X........... ....X",
" .....X            ....X",
" ......................X",
" ......................X",
" ......................X",
" ......................X",
" XXXXXXXXXXXXXXXXXXXXXXX"
};
