/* XPM */
static char *titleAS[] = {
/* columns rows colors chars-per-pixel */
"1 24 3 1 ",
"  c #221E22",
". c #221E22",
"X c #8C86AA",
/* pixels */
"X",
".",
".",
".",
".",
".",
".",
".",
".",
".",
".",
".",
".",
".",
".",
".",
".",
".",
".",
".",
".",
".",
".",
" "
};
